PathFileType	4	(X/Y/Z)	C:\Users\WrightLab\Desktop\Jo\P3_9.trc
DataRate	CameraRate	NumFrames	NumMarkers	Units	OrigDataRate	OrigDataStartFrame	OrigNumFrames
100.00	100.00	       29	19	mm	100.00	1	       535
Frame#	Time	Headset_Front			Headset_Back			Headset_Left			Headset_Right			Left_Shoulder			Right_Shoulder			Sternum			C7			Left Elbow			Right Elbow			Left Wrist			Right Wrist			Left ASIS			Right ASIS			S2			Left Knee			Right Knee			Left Ankle			Right Ankle			
		X1	Y1	Z1	X2	Y2	Z2	X3	Y3	Z3	X4	Y4	Z4	X5	Y5	Z5	X6	Y6	Z6	X7	Y7	Z7	X8	Y8	Z8	X9	Y9	Z9	X10	Y10	Z10	X11	Y11	Z11	X12	Y12	Z12	X13	Y13	Z13	X14	Y14	Z14	X15	Y15	Z15	X16	Y16	Z16	X17	Y17	Z17	X18	Y18	Z18	X19	Y19	Z19	

1	0.000																-44.56648	1406.45190	2701.23950										35.61872	1064.46887	2756.17188										-213.86765	1008.74481	2827.43359							-39.59898	516.65894	2581.68286				-38.88038	225.60767	2758.36035	
2	0.010																-44.56747	1406.93408	2699.33130										34.74339	1064.65088	2754.95850										-214.33902	1008.50879	2824.69507							-38.80503	518.87537	2572.76367				-38.74402	228.76523	2751.57397	
3	0.020																-45.13672	1406.91589	2696.26904										34.29980	1065.15112	2754.02930										-214.83376	1008.33929	2821.92676							-37.70940	521.20459	2564.37964				-38.72763	231.23756	2744.97339	
4	0.030																-44.96905	1406.49329	2693.73511										33.84826	1065.31128	2752.90088							52.63124	875.63995	2626.04248	-214.91382	1008.09668	2819.51685							-36.16292	523.57874	2555.90869				-39.55773	234.34401	2735.72998	
5	0.040																-44.87025	1406.79797	2691.34790										33.41193	1065.47791	2750.78931							52.81249	875.36090	2625.73560	-215.10994	1008.27325	2816.19531							-34.98008	526.41418	2549.15576				-40.18005	236.59120	2726.92627	
6	0.050																-45.05686	1406.73315	2687.83057										32.92429	1065.74548	2749.10059							52.68118	876.14990	2621.89063	-214.82170	1008.62909	2813.88770							-33.75394	528.24664	2541.57642				-39.70978	238.53581	2719.20801	
7	0.060																-45.04721	1407.23096	2685.80249										33.00047	1065.57471	2747.81152							53.64096	875.62958	2622.71802	-214.70914	1007.97058	2810.55884							-32.02997	530.74225	2536.45850				-39.43176	237.08983	2707.80273	
8	0.070																-45.05322	1406.76611	2681.49536										32.56998	1065.95007	2745.42749							53.83039	875.80334	2619.68677	-214.49934	1007.89081	2807.44165							-31.26900	532.76538	2527.79297				-38.52829	236.86867	2697.71680	
9	0.080																-44.76395	1406.63818	2678.72168										32.22377	1065.85400	2743.12451							54.34648	875.57507	2618.50635	-214.12241	1008.54211	2805.10791							-29.20518	534.60126	2522.84497				-37.53460	237.15335	2687.63867	
10	0.090																-44.82664	1406.75342	2675.64868										31.93653	1066.79626	2741.72266							55.84501	875.75073	2617.42725	-213.82892	1007.99677	2801.27319							-28.04374	536.80328	2515.97485				-36.41571	235.55176	2674.73950	
11	0.100																-44.69673	1406.23499	2671.49146										32.20996	1065.93835	2738.41724							56.61478	875.61694	2615.78564	-213.28760	1007.88239	2797.57935							-26.91172	538.48401	2509.63110				-35.00590	233.26938	2662.10889	
12	0.110																-44.70887	1406.25830	2668.94482										32.00591	1065.85132	2735.59448							57.23918	875.52319	2613.82056	-212.48740	1007.78638	2794.84839							-25.19214	539.34503	2504.28027				-33.02221	230.17223	2647.34009	
13	0.120																-44.35940	1405.55835	2664.39380										32.31060	1065.83289	2733.35327							57.85931	874.55487	2611.68140	-212.12946	1007.03864	2790.63696							-23.58023	540.40558	2499.34302				-30.42374	227.89990	2635.07373	
14	0.130																-43.89677	1405.64026	2661.32056										32.00932	1065.87524	2730.21338							58.51524	873.80585	2608.39136	-211.72404	1007.24786	2787.16577							-22.44447	541.54456	2493.76221				-27.83792	225.07190	2620.86450	
15	0.140																-43.84826	1404.65393	2656.59912										32.64326	1065.30286	2726.71509							59.66571	873.00311	2606.48779	-210.73796	1007.11011	2783.75073							-21.49166	541.25269	2488.79565				-24.98185	221.07332	2605.86865	
16	0.150																-43.00890	1404.22107	2653.20264										32.97930	1065.01794	2723.64380							61.26561	872.70129	2604.21606	-210.56801	1006.53827	2779.57788							-19.79472	542.04303	2485.09570				-22.34812	218.71944	2590.57935	
17	0.160																-42.54154	1403.13281	2647.66431										33.40332	1064.53406	2719.34448							62.15951	872.29279	2601.66064	-209.33820	1006.03510	2775.59009							-18.64262	542.41754	2480.54004				-18.59726	214.49503	2573.96118	
18	0.170																-42.08143	1402.91431	2644.58179										34.05847	1064.35693	2716.46729							62.94557	870.57672	2598.39111	-208.34337	1005.53033	2771.75562							-18.07039	541.68750	2474.08936				-15.15328	211.21510	2558.39038	
19	0.180																-41.71278	1402.11584	2639.45166										34.58753	1063.37048	2712.01050							64.11514	870.00482	2594.35327	-207.67625	1004.66498	2766.89136							-16.80512	541.53058	2470.18774				-11.58073	208.58690	2542.75488	
20	0.190																-40.31337	1401.24988	2635.22095										35.37880	1063.13660	2707.99146							66.51650	869.35541	2593.06323	-206.56218	1004.42572	2763.32593							-15.47975	541.64960	2465.86865				-8.60982	205.71413	2526.54688	
21	0.200																-39.87523	1399.90100	2629.81592										36.23638	1062.54883	2704.28101							67.52872	868.34155	2588.94165	-205.57118	1003.27521	2758.35352							-13.97885	540.05176	2462.40820				-4.86772	202.98711	2509.54297	
22	0.210																-38.89482	1399.36255	2625.80566										37.00787	1061.59082	2699.34546							68.44505	867.16388	2584.05737	-204.43712	1002.51923	2753.25000							-13.62104	539.55762	2456.49609				-1.50953	199.68364	2492.02905	
23	0.220																-38.09503	1398.34961	2620.48438										38.20721	1061.23865	2695.37793							71.03578	866.10150	2582.06445	-203.03127	1001.53528	2749.01440							-12.56471	537.84814	2453.51123				2.35889	198.35512	2477.67090	
24	0.230																-36.85881	1397.71570	2616.15259										39.25224	1059.87207	2690.66284							71.80018	865.62427	2576.18018	-202.27074	1000.10071	2743.35107							-11.19972	536.89093	2449.87891				5.24524	197.05392	2461.08716	
25	0.240																-35.95916	1396.05310	2610.78271										40.68869	1058.97205	2685.84131							73.32905	863.84644	2572.33838	-200.57132	999.16968	2738.51831							-9.74365	535.17145	2446.90771				9.11199	194.39900	2444.72559	
26	0.250																-34.64607	1394.69165	2605.69604										41.87909	1058.19556	2681.36768							75.82712	863.31433	2568.66455	-199.24232	997.51355	2733.11377							-8.45101	533.33838	2444.09448				12.09468	193.84128	2429.34058	
27	0.260																-33.34641	1393.26013	2600.71167							-444.99045	1050.11511	2490.13696	43.15971	1056.45459	2676.43384							76.60666	861.84430	2562.36792	-197.94092	996.23010	2727.79370							-7.39338	530.76788	2440.98242				14.73483	193.57085	2414.22876	
28	0.270																-32.06718	1391.96667	2595.59180							-443.40906	1049.00403	2482.37280	44.93781	1055.60046	2671.91040							78.94984	860.20709	2558.50928	-196.00407	995.32996	2722.76953							-6.02746	528.93738	2439.21729				18.08146	193.53423	2400.86670	
29	0.280																-30.42929	1390.77136	2590.82007							-442.20117	1048.83264	2475.81592	46.54537	1054.03345	2666.22485							81.13848	859.26404	2554.07227	-194.44499	993.16479	2716.34082							-4.43781	525.77148	2435.81152				20.69687	193.18086	2387.36987	
